<svg width="72" height="72" viewBox="0 0 72 72" fill="none" xmlns="http://www.w3.org/2000/svg">
<g filter="url(#filter0_b_1821_1651)">
<g filter="url(#filter1_b_1821_1651)">
<path fill-rule="evenodd" clip-rule="evenodd" d="M10.9777 51.9749C8.44967 47.6715 7 42.6584 7 37.3066C7 21.2904 19.9837 8.30664 36 8.30664C39.8031 8.30664 43.4352 9.03872 46.7631 10.3696C46.0004 10.7832 45.3387 11.4059 44.873 12.2125C44.2775 13.244 44.1026 14.4029 44.2952 15.4907C41.7181 14.5104 38.9224 13.9736 36.0013 13.9736C23.1147 13.9736 12.668 24.4203 12.668 37.307C12.668 41.4943 13.771 45.424 15.7022 48.8214C15.7351 48.8708 15.7665 48.9216 15.7966 48.9737C16.5795 50.3297 16.1149 52.0635 14.7589 52.8464C13.4581 53.5974 11.8096 53.2004 10.9864 51.9698L10.9777 51.9749ZM50.7432 19.2196C55.9866 23.4983 59.3346 30.0116 59.3346 37.307C59.3346 41.5002 58.2285 45.4352 56.2921 48.8359C56.2627 48.8807 56.2344 48.9267 56.2073 48.9737C55.4244 50.3297 55.889 52.0635 57.245 52.8464C58.5452 53.5971 60.1929 53.2008 61.0164 51.9714L61.0223 51.9749C63.5503 47.6715 65 42.6584 65 37.3066C65 28.0686 60.6804 19.8394 53.9509 14.5287C53.9724 15.3931 53.7637 16.274 53.2998 17.0776C52.703 18.1113 51.7842 18.8431 50.7432 19.2196Z" fill="#0D0D0D" fill-opacity="0.5"/>
<path fill-rule="evenodd" clip-rule="evenodd" d="M10.9777 51.9749C8.44967 47.6715 7 42.6584 7 37.3066C7 21.2904 19.9837 8.30664 36 8.30664C39.8031 8.30664 43.4352 9.03872 46.7631 10.3696C46.0004 10.7832 45.3387 11.4059 44.873 12.2125C44.2775 13.244 44.1026 14.4029 44.2952 15.4907C41.7181 14.5104 38.9224 13.9736 36.0013 13.9736C23.1147 13.9736 12.668 24.4203 12.668 37.307C12.668 41.4943 13.771 45.424 15.7022 48.8214C15.7351 48.8708 15.7665 48.9216 15.7966 48.9737C16.5795 50.3297 16.1149 52.0635 14.7589 52.8464C13.4581 53.5974 11.8096 53.2004 10.9864 51.9698L10.9777 51.9749ZM50.7432 19.2196C55.9866 23.4983 59.3346 30.0116 59.3346 37.307C59.3346 41.5002 58.2285 45.4352 56.2921 48.8359C56.2627 48.8807 56.2344 48.9267 56.2073 48.9737C55.4244 50.3297 55.889 52.0635 57.245 52.8464C58.5452 53.5971 60.1929 53.2008 61.0164 51.9714L61.0223 51.9749C63.5503 47.6715 65 42.6584 65 37.3066C65 28.0686 60.6804 19.8394 53.9509 14.5287C53.9724 15.3931 53.7637 16.274 53.2998 17.0776C52.703 18.1113 51.7842 18.8431 50.7432 19.2196Z" fill="#8C8C8C" style="mix-blend-mode:color-dodge"/>
</g>
<circle cx="2.835" cy="2.835" r="2.835" transform="matrix(0.5 -0.866025 -0.866025 -0.5 50.125 18.5176)" fill="white"/>
<path d="M40.6655 62.6934L44.0815 56.0439V55.9634H40.021V54.9429H45.3008V55.9902L41.9331 62.6934H40.6655ZM49.3774 62.8384C48.8009 62.8384 48.2925 62.7435 47.8521 62.5537C47.4116 62.3639 47.0661 62.1007 46.8154 61.7642C46.5648 61.424 46.4395 61.0355 46.4395 60.5986V60.5879C46.4395 60.262 46.5111 59.9631 46.6543 59.6909C46.8011 59.4188 47.0034 59.1896 47.2612 59.0034C47.5226 58.8136 47.8216 58.6829 48.1582 58.6113V58.5845C47.7249 58.4591 47.3758 58.2443 47.1108 57.9399C46.8494 57.6356 46.7188 57.2775 46.7188 56.8657V56.855C46.7188 56.4575 46.8315 56.1048 47.0571 55.7969C47.2863 55.4889 47.6014 55.2454 48.0024 55.0664C48.4035 54.8874 48.8618 54.7979 49.3774 54.7979C49.8931 54.7979 50.3496 54.8874 50.7471 55.0664C51.1481 55.2454 51.4614 55.4889 51.687 55.7969C51.9162 56.1048 52.0308 56.4575 52.0308 56.855V56.8657C52.0308 57.2775 51.9001 57.6356 51.6387 57.9399C51.3773 58.2443 51.0299 58.4591 50.5967 58.5845V58.6113C50.9368 58.6829 51.234 58.8136 51.4883 59.0034C51.7461 59.1896 51.9466 59.4188 52.0898 59.6909C52.2367 59.9631 52.3101 60.262 52.3101 60.5879V60.5986C52.3101 61.0355 52.1847 61.424 51.9341 61.7642C51.687 62.1007 51.3415 62.3639 50.8975 62.5537C50.457 62.7435 49.9504 62.8384 49.3774 62.8384ZM49.3774 61.8716C49.7069 61.8716 49.9987 61.8143 50.2529 61.6997C50.5072 61.5815 50.7059 61.4222 50.8491 61.2217C50.9959 61.0176 51.0693 60.7848 51.0693 60.5234V60.5127C51.0693 60.2477 50.9977 60.0132 50.8545 59.8091C50.7113 59.6014 50.5107 59.4403 50.2529 59.3257C49.9987 59.2075 49.7069 59.1484 49.3774 59.1484C49.0444 59.1484 48.7508 59.2075 48.4966 59.3257C48.2424 59.4403 48.0436 59.6014 47.9004 59.8091C47.7572 60.0132 47.6855 60.2477 47.6855 60.5127V60.5234C47.6855 60.7848 47.7572 61.0176 47.9004 61.2217C48.0472 61.4222 48.2477 61.5815 48.502 61.6997C48.7562 61.8143 49.048 61.8716 49.3774 61.8716ZM49.3774 58.1763C49.6639 58.1763 49.9163 58.1261 50.1348 58.0259C50.3568 57.922 50.5286 57.7788 50.6504 57.5962C50.7721 57.4136 50.833 57.2059 50.833 56.9731V56.9624C50.833 56.7261 50.7703 56.5166 50.645 56.334C50.5233 56.1514 50.3532 56.0099 50.1348 55.9097C49.9163 55.8058 49.6639 55.7539 49.3774 55.7539C49.091 55.7539 48.8368 55.8058 48.6147 55.9097C48.3963 56.0099 48.2244 56.1514 48.0991 56.334C47.9774 56.5166 47.9165 56.7261 47.9165 56.9624V56.9731C47.9165 57.2059 47.9774 57.4136 48.0991 57.5962C48.2244 57.7788 48.3963 57.922 48.6147 58.0259C48.8332 58.1261 49.0874 58.1763 49.3774 58.1763Z" fill="white"/>
<path d="M21.0234 62.8813C20.5186 62.8813 20.071 62.7847 19.6807 62.5913C19.2904 62.3979 18.9788 62.1348 18.7461 61.8018C18.5133 61.4652 18.3773 61.0892 18.3379 60.6738L18.3325 60.604H19.4658L19.4712 60.647C19.507 60.8726 19.5929 61.0785 19.729 61.2646C19.8687 61.4508 20.0513 61.5977 20.2769 61.7051C20.5024 61.8125 20.7549 61.8662 21.0342 61.8662C21.3529 61.8662 21.634 61.7964 21.8774 61.6567C22.1209 61.5135 22.3107 61.3184 22.4468 61.0713C22.5864 60.8242 22.6562 60.5396 22.6562 60.2173V60.2065C22.6562 59.8879 22.5864 59.605 22.4468 59.3579C22.3071 59.1108 22.1174 58.9193 21.8774 58.7832C21.6375 58.6436 21.36 58.5737 21.0449 58.5737C20.8122 58.5737 20.5955 58.6095 20.395 58.6812C20.1981 58.7492 20.0226 58.853 19.8687 58.9927C19.8006 59.0571 19.7362 59.127 19.6753 59.2021C19.6144 59.2738 19.5607 59.3543 19.5142 59.4438H18.4722L18.8589 54.9429H23.3706V55.9634H19.8096L19.5732 58.4341H19.6592C19.7702 58.2586 19.908 58.11 20.0728 57.9883C20.241 57.8665 20.4308 57.7734 20.6421 57.709C20.8534 57.6445 21.0771 57.6123 21.3135 57.6123C21.8005 57.6123 22.2301 57.7233 22.6025 57.9453C22.9785 58.1673 23.2739 58.4717 23.4888 58.8584C23.7036 59.2451 23.811 59.6873 23.811 60.1851V60.1958C23.811 60.7222 23.6911 61.1877 23.4512 61.5923C23.2148 61.9969 22.8872 62.3138 22.4683 62.543C22.0529 62.7686 21.5713 62.8813 21.0234 62.8813ZM28.0542 62.8813C27.4562 62.8813 26.9442 62.7166 26.5181 62.3872C26.092 62.0578 25.7643 61.5905 25.5352 60.9854C25.306 60.3766 25.1914 59.6551 25.1914 58.8208V58.8101C25.1914 57.9757 25.306 57.256 25.5352 56.6509C25.7643 56.0457 26.092 55.5785 26.5181 55.249C26.9442 54.9196 27.4562 54.7549 28.0542 54.7549C28.6522 54.7549 29.1642 54.9196 29.5903 55.249C30.0164 55.5785 30.3441 56.0457 30.5732 56.6509C30.806 57.256 30.9224 57.9757 30.9224 58.8101V58.8208C30.9224 59.6551 30.806 60.3766 30.5732 60.9854C30.3441 61.5905 30.0164 62.0578 29.5903 62.3872C29.1642 62.7166 28.6522 62.8813 28.0542 62.8813ZM28.0542 61.877C28.4015 61.877 28.6969 61.7534 28.9404 61.5063C29.1875 61.2593 29.3755 60.9084 29.5044 60.4536C29.6369 59.9953 29.7031 59.451 29.7031 58.8208V58.8101C29.7031 58.1799 29.6369 57.6374 29.5044 57.1826C29.3755 56.7279 29.1875 56.3787 28.9404 56.1353C28.6969 55.8882 28.4015 55.7646 28.0542 55.7646C27.7104 55.7646 27.415 55.8882 27.168 56.1353C26.9245 56.3787 26.7365 56.7279 26.604 57.1826C26.4751 57.6374 26.4106 58.1799 26.4106 58.8101V58.8208C26.4106 59.451 26.4751 59.9953 26.604 60.4536C26.7365 60.9084 26.9245 61.2593 27.168 61.5063C27.415 61.7534 27.7104 61.877 28.0542 61.877Z" fill="white"/>
<path d="M28.7578 44.2783C27.8906 44.2783 27.0586 44.1221 26.2617 43.8096C25.4727 43.4893 24.7656 42.9893 24.1406 42.3096C23.5156 41.6299 23.0195 40.7549 22.6523 39.6846C22.293 38.6064 22.1133 37.3018 22.1133 35.7705V35.7471C22.1133 33.8643 22.3789 32.251 22.9102 30.9072C23.4492 29.5635 24.2227 28.5361 25.2305 27.8252C26.2383 27.1143 27.4453 26.7588 28.8516 26.7588C29.8594 26.7588 30.7656 26.9385 31.5703 27.2979C32.3828 27.6572 33.0547 28.1572 33.5859 28.7979C34.125 29.4385 34.4844 30.1768 34.6641 31.0127L34.6992 31.1533H32.0625L32.0156 31.0361C31.8594 30.6143 31.6328 30.251 31.3359 29.9463C31.0469 29.6338 30.6914 29.3955 30.2695 29.2314C29.8477 29.0596 29.3711 28.9736 28.8398 28.9736C27.8789 28.9736 27.0938 29.2549 26.4844 29.8174C25.8828 30.3721 25.4336 31.1143 25.1367 32.0439C24.8477 32.9736 24.6836 33.9971 24.6445 35.1143C24.6367 35.208 24.6328 35.3018 24.6328 35.3955C24.6328 35.4893 24.6328 35.583 24.6328 35.6768L25.1484 38.4775C25.1484 39.1416 25.3047 39.7471 25.6172 40.2939C25.9375 40.833 26.3672 41.2627 26.9062 41.583C27.4531 41.9033 28.0586 42.0635 28.7227 42.0635C29.3867 42.0635 29.9883 41.9072 30.5273 41.5947C31.0742 41.2822 31.5078 40.8604 31.8281 40.3291C32.1484 39.79 32.3086 39.1924 32.3086 38.5361V38.5127C32.3086 37.833 32.1523 37.2275 31.8398 36.6963C31.5352 36.165 31.1172 35.751 30.5859 35.4541C30.0547 35.1572 29.4453 35.0088 28.7578 35.0088C28.0781 35.0088 27.4648 35.1572 26.918 35.4541C26.3711 35.751 25.9375 36.1611 25.6172 36.6846C25.3047 37.2002 25.1484 37.79 25.1484 38.4541V38.4775H24.4453V35.5713H24.7266C24.9453 35.0713 25.2734 34.6182 25.7109 34.2119C26.1484 33.8057 26.6719 33.4814 27.2812 33.2393C27.8984 32.9971 28.5898 32.876 29.3555 32.876C30.4414 32.876 31.4023 33.1182 32.2383 33.6025C33.0742 34.0791 33.7305 34.7393 34.207 35.583C34.6836 36.4189 34.9219 37.3721 34.9219 38.4424V38.4658C34.9219 39.5908 34.6523 40.5908 34.1133 41.4658C33.582 42.3408 32.8516 43.0283 31.9219 43.5283C31 44.0283 29.9453 44.2783 28.7578 44.2783ZM38.5312 43.9736L46.0312 29.3604V29.2783H37.125V27.0635H48.6445V29.3486L41.2969 43.9736H38.5312Z" fill="white"/>
</g>
<defs>
<filter id="filter0_b_1821_1651" x="-40" y="-40" width="152" height="152" filterUnits="userSpaceOnUse" color-interpolation-filters="sRGB">
<feFlood flood-opacity="0" result="BackgroundImageFix"/>
<feGaussianBlur in="BackgroundImageFix" stdDeviation="20"/>
<feComposite in2="SourceAlpha" operator="in" result="effect1_backgroundBlur_1821_1651"/>
<feBlend mode="normal" in="SourceGraphic" in2="effect1_backgroundBlur_1821_1651" result="shape"/>
</filter>
<filter id="filter1_b_1821_1651" x="-43" y="-41.6934" width="158" height="144.92" filterUnits="userSpaceOnUse" color-interpolation-filters="sRGB">
<feFlood flood-opacity="0" result="BackgroundImageFix"/>
<feGaussianBlur in="BackgroundImageFix" stdDeviation="25"/>
<feComposite in2="SourceAlpha" operator="in" result="effect1_backgroundBlur_1821_1651"/>
<feBlend mode="normal" in="SourceGraphic" in2="effect1_backgroundBlur_1821_1651" result="shape"/>
</filter>
</defs>
</svg>
