<svg width="58" height="60" viewBox="0 0 58 60" fill="none" xmlns="http://www.w3.org/2000/svg">
<g filter="url(#filter0_b_1821_1638)">
<path fill-rule="evenodd" clip-rule="evenodd" d="M3.97775 43.9748C1.44967 39.6715 0 34.6584 0 29.3066C0 13.2904 12.9837 0.30661 29 0.30661C32.8031 0.30661 36.4352 1.03869 39.7631 2.3696C39.0004 2.78316 38.3387 3.40592 37.873 4.21243C37.2775 5.24395 37.1026 6.4029 37.2952 7.49064C34.7181 6.51037 31.9224 5.9736 29.0013 5.9736C16.1147 5.9736 5.66797 16.4203 5.66797 29.3069C5.66797 33.4942 6.77095 37.4239 8.70224 40.8213C8.73505 40.8708 8.76653 40.9216 8.79661 40.9737C9.57948 42.3296 9.11489 44.0635 7.75893 44.8463C6.45814 45.5974 4.80958 45.2004 3.98644 43.9697L3.97775 43.9748ZM43.7432 11.2195C48.9866 15.4982 52.3346 22.0116 52.3346 29.3069C52.3346 33.5002 51.2285 37.4352 49.2921 40.8359C49.2627 40.8807 49.2344 40.9267 49.2073 40.9737C48.4244 42.3296 48.889 44.0635 50.245 44.8463C51.5452 45.597 53.1929 45.2007 54.0164 43.9714L54.0223 43.9748C56.5503 39.6715 58 34.6584 58 29.3066C58 20.0686 53.6804 11.8394 46.9509 6.52866C46.9724 7.39304 46.7637 8.274 46.2998 9.07761C45.703 10.1113 44.7842 10.8431 43.7432 11.2195Z" fill="#0D0D0D" fill-opacity="0.5"/>
<path fill-rule="evenodd" clip-rule="evenodd" d="M3.97775 43.9748C1.44967 39.6715 0 34.6584 0 29.3066C0 13.2904 12.9837 0.30661 29 0.30661C32.8031 0.30661 36.4352 1.03869 39.7631 2.3696C39.0004 2.78316 38.3387 3.40592 37.873 4.21243C37.2775 5.24395 37.1026 6.4029 37.2952 7.49064C34.7181 6.51037 31.9224 5.9736 29.0013 5.9736C16.1147 5.9736 5.66797 16.4203 5.66797 29.3069C5.66797 33.4942 6.77095 37.4239 8.70224 40.8213C8.73505 40.8708 8.76653 40.9216 8.79661 40.9737C9.57948 42.3296 9.11489 44.0635 7.75893 44.8463C6.45814 45.5974 4.80958 45.2004 3.98644 43.9697L3.97775 43.9748ZM43.7432 11.2195C48.9866 15.4982 52.3346 22.0116 52.3346 29.3069C52.3346 33.5002 51.2285 37.4352 49.2921 40.8359C49.2627 40.8807 49.2344 40.9267 49.2073 40.9737C48.4244 42.3296 48.889 44.0635 50.245 44.8463C51.5452 45.597 53.1929 45.2007 54.0164 43.9714L54.0223 43.9748C56.5503 39.6715 58 34.6584 58 29.3066C58 20.0686 53.6804 11.8394 46.9509 6.52866C46.9724 7.39304 46.7637 8.274 46.2998 9.07761C45.703 10.1113 44.7842 10.8431 43.7432 11.2195Z" fill="#8C8C8C" style="mix-blend-mode:color-dodge"/>
</g>
<circle cx="2.835" cy="2.835" r="2.835" transform="matrix(0.5 -0.866025 -0.866025 -0.5 43.125 10.5175)" fill="white"/>
<path d="M14.4102 55.5L17.4629 47.0449H18.5234V48.5273H18.125L15.793 55.5H14.4102ZM15.8809 53.2148L16.25 52.1601H20.0996L20.4688 53.2148H15.8809ZM20.5508 55.5L18.2246 48.5273V47.0449H18.8867L21.9336 55.5H20.5508ZM26.6094 55.705C25.7891 55.705 25.084 55.5254 24.4941 55.166C23.9043 54.8027 23.4512 54.289 23.1348 53.625C22.8184 52.9609 22.6602 52.1777 22.6602 51.2754V51.2636C22.6602 50.3535 22.8203 49.5683 23.1406 48.9082C23.4609 48.248 23.916 47.7383 24.5059 47.3789C25.0996 47.0195 25.8008 46.8398 26.6094 46.8398C27.4219 46.8398 28.123 47.0195 28.7129 47.3789C29.3027 47.7383 29.7559 48.25 30.0723 48.914C30.3926 49.5742 30.5527 50.3574 30.5527 51.2636V51.2754C30.5527 52.1777 30.3945 52.9609 30.0781 53.625C29.7617 54.2851 29.3066 54.7968 28.7129 55.1601C28.123 55.5234 27.4219 55.705 26.6094 55.705ZM26.6094 54.539C27.1406 54.539 27.6016 54.4043 27.9922 54.1347C28.3828 53.8652 28.6836 53.4863 28.8945 52.998C29.1055 52.5058 29.2109 51.9316 29.2109 51.2754V51.2636C29.2109 50.5996 29.1055 50.0234 28.8945 49.5351C28.6836 49.0468 28.3828 48.6699 27.9922 48.4043C27.6016 48.1386 27.1406 48.0058 26.6094 48.0058C26.0781 48.0058 25.6172 48.1386 25.2266 48.4043C24.8398 48.6699 24.5391 49.0468 24.3242 49.5351C24.1094 50.0234 24.002 50.5996 24.002 51.2636V51.2754C24.002 51.9316 24.1055 52.5058 24.3125 52.998C24.5234 53.4863 24.8223 53.8652 25.209 54.1347C25.5996 54.4043 26.0664 54.539 26.6094 54.539ZM28.8477 56.414L26.2988 52.9453H27.6523L30.2012 56.414H28.8477ZM32.334 55.5V47.0449H33.6465V55.5H32.334Z" fill="white"/>
<path d="M16.4116 36V34.1577L22.4529 28.0686C23.2185 27.295 23.8007 26.653 24.1995 26.1425C24.6062 25.6321 24.8853 25.1775 25.0369 24.7788C25.1964 24.372 25.2761 23.9454 25.2761 23.4987V23.4748C25.2761 22.9245 25.1485 22.438 24.8933 22.0154C24.6381 21.5847 24.2832 21.2497 23.8286 21.0105C23.382 20.7712 22.8596 20.6516 22.2615 20.6516C21.5995 20.6516 21.0094 20.7872 20.491 21.0583C19.9726 21.3295 19.5658 21.7003 19.2708 22.1709C18.9757 22.6414 18.8281 23.1718 18.8281 23.7619L18.8162 23.8337H16.28L16.2681 23.7619C16.276 22.7251 16.5392 21.808 17.0576 21.0105C17.584 20.205 18.3018 19.5749 19.2109 19.1203C20.1201 18.6578 21.137 18.4265 22.2615 18.4265C23.37 18.4265 24.347 18.6378 25.1924 19.0605C26.0457 19.4832 26.7157 20.0654 27.2021 20.8071C27.6886 21.5408 27.9319 22.3742 27.9319 23.3073V23.3313C27.9319 23.9852 27.8123 24.6113 27.573 25.2094C27.3337 25.8076 26.923 26.4655 26.3408 27.1833C25.7586 27.8931 24.9491 28.7584 23.9124 29.7793L19.1511 34.4687L20.0244 32.8178V34.4687L19.1631 33.727H28.207V36H16.4116ZM30.7002 36L38.3564 21.0822V20.9985H29.2527V18.7375H41.0242V21.0703L33.5115 36H30.7002Z" fill="white"/>
<defs>
<filter id="filter0_b_1821_1638" x="-50" y="-49.6934" width="158" height="144.92" filterUnits="userSpaceOnUse" color-interpolation-filters="sRGB">
<feFlood flood-opacity="0" result="BackgroundImageFix"/>
<feGaussianBlur in="BackgroundImageFix" stdDeviation="25"/>
<feComposite in2="SourceAlpha" operator="in" result="effect1_backgroundBlur_1821_1638"/>
<feBlend mode="normal" in="SourceGraphic" in2="effect1_backgroundBlur_1821_1638" result="shape"/>
</filter>
</defs>
</svg>
