<svg width="142" height="142" viewBox="0 0 142 142" fill="none" xmlns="http://www.w3.org/2000/svg">
<rect width="142" height="142" rx="30" fill="#333333" fill-opacity="0.35"/>
<rect width="142" height="142" rx="30" fill="black" fill-opacity="0.2" style="mix-blend-mode:plus-darker"/>
<rect x="105.333" y="105.333" width="23" height="23" rx="11.5" fill="#111111" fill-opacity="0.6" style="mix-blend-mode:luminosity"/>
<rect x="105.333" y="105.333" width="23" height="23" rx="11.5" fill="#777777" style="mix-blend-mode:color-dodge"/>
<rect x="105.333" y="105.333" width="23" height="23" rx="11.5" fill="#222222" style="mix-blend-mode:plus-lighter"/>
<path d="M111.626 114.366L112.013 113.5C112.426 114.016 112.901 114.457 113.437 114.823C113.976 115.187 114.556 115.463 115.177 115.654C115.801 115.844 116.449 115.938 117.12 115.935C117.896 115.932 118.64 115.797 119.352 115.531C120.067 115.261 120.714 114.876 121.294 114.375L121.686 115.157C121.044 115.676 120.332 116.074 119.55 116.353C118.768 116.631 117.958 116.771 117.12 116.774C116.417 116.774 115.732 116.681 115.067 116.493C114.405 116.306 113.781 116.032 113.195 115.671C112.612 115.311 112.089 114.876 111.626 114.366ZM111.011 117.543L111.231 116.607C111.799 117.149 112.416 117.601 113.081 117.961C113.749 118.321 114.445 118.591 115.168 118.77C115.892 118.945 116.625 119.029 117.366 119.02C118.11 119.008 118.842 118.903 119.563 118.704C120.287 118.501 120.979 118.201 121.642 117.803L121.664 118.765C120.805 119.219 119.909 119.531 118.974 119.701C118.04 119.871 117.102 119.903 116.162 119.798C115.224 119.689 114.317 119.448 113.441 119.073C112.565 118.695 111.755 118.185 111.011 117.543ZM113.841 121.45C113.68 120.999 113.559 120.542 113.477 120.079C113.395 119.619 113.351 119.155 113.345 118.686C113.31 117.962 113.356 117.252 113.485 116.555C113.614 115.857 113.816 115.185 114.092 114.538C114.37 113.887 114.717 113.276 115.133 112.705C115.549 112.131 116.027 111.608 116.566 111.136L117.454 111.488C116.906 111.921 116.421 112.408 115.999 112.947C115.58 113.486 115.229 114.064 114.944 114.683C114.66 115.298 114.452 115.942 114.32 116.616C114.191 117.287 114.145 117.973 114.18 118.673C114.188 119.194 114.247 119.707 114.355 120.211C114.467 120.715 114.626 121.203 114.834 121.674L113.841 121.45ZM117.651 122.03C117.089 121.233 116.66 120.372 116.364 119.446C116.071 118.518 115.924 117.56 115.924 116.572C115.924 115.652 116.055 114.756 116.315 113.883C116.576 113.01 116.953 112.191 117.445 111.426L118.262 111.716C117.776 112.425 117.405 113.193 117.15 114.019C116.896 114.842 116.768 115.693 116.768 116.572C116.768 117.498 116.91 118.396 117.194 119.266C117.481 120.136 117.895 120.942 118.434 121.683L117.651 122.03ZM120.921 119.947C120.227 119.54 119.626 119.032 119.119 118.422C118.612 117.81 118.22 117.132 117.941 116.388C117.663 115.644 117.52 114.864 117.511 114.05C117.508 113.604 117.544 113.168 117.621 112.74C117.7 112.312 117.818 111.895 117.977 111.488L118.781 111.716C118.631 112.091 118.52 112.475 118.447 112.868C118.376 113.257 118.344 113.65 118.35 114.045C118.359 114.784 118.491 115.487 118.746 116.155C119.003 116.823 119.365 117.428 119.831 117.97C120.297 118.509 120.849 118.954 121.488 119.306L120.921 119.947ZM114.096 116.717C113.917 116.717 113.753 116.673 113.604 116.585C113.458 116.498 113.339 116.38 113.248 116.234C113.16 116.087 113.116 115.923 113.116 115.742C113.116 115.566 113.16 115.405 113.248 115.258C113.339 115.109 113.458 114.99 113.604 114.902C113.753 114.814 113.917 114.771 114.096 114.771C114.272 114.771 114.433 114.814 114.58 114.902C114.729 114.99 114.846 115.109 114.931 115.258C115.019 115.405 115.063 115.566 115.063 115.742C115.063 115.923 115.019 116.087 114.931 116.234C114.846 116.38 114.729 116.498 114.58 116.585C114.433 116.673 114.272 116.717 114.096 116.717ZM118.46 117.192C118.281 117.192 118.119 117.148 117.972 117.06C117.826 116.972 117.708 116.855 117.621 116.708C117.533 116.562 117.489 116.399 117.489 116.221C117.489 116.042 117.533 115.881 117.621 115.737C117.708 115.591 117.826 115.474 117.972 115.386C118.119 115.298 118.281 115.254 118.46 115.254C118.639 115.254 118.8 115.298 118.943 115.386C119.09 115.474 119.207 115.591 119.295 115.737C119.383 115.881 119.427 116.042 119.427 116.221C119.427 116.399 119.383 116.562 119.295 116.708C119.207 116.855 119.09 116.972 118.943 117.06C118.8 117.148 118.639 117.192 118.46 117.192ZM116.772 120.36C116.591 120.36 116.425 120.316 116.276 120.229C116.126 120.141 116.008 120.023 115.92 119.877C115.832 119.728 115.788 119.563 115.788 119.385C115.788 119.2 115.832 119.035 115.92 118.888C116.008 118.742 116.126 118.625 116.276 118.537C116.425 118.446 116.591 118.4 116.772 118.4C116.951 118.4 117.114 118.446 117.26 118.537C117.41 118.625 117.528 118.742 117.616 118.888C117.704 119.035 117.748 119.2 117.748 119.385C117.748 119.563 117.704 119.728 117.616 119.877C117.528 120.023 117.41 120.141 117.26 120.229C117.114 120.316 116.951 120.36 116.772 120.36ZM116.496 122.751C115.842 122.751 115.22 122.651 114.628 122.452C114.036 122.253 113.493 121.972 112.998 121.608C112.505 121.245 112.078 120.816 111.714 120.321C111.351 119.829 111.07 119.287 110.871 118.695C110.671 118.103 110.572 117.48 110.572 116.827C110.572 116.171 110.671 115.547 110.871 114.955C111.07 114.363 111.351 113.821 111.714 113.329C112.078 112.834 112.505 112.406 112.998 112.046C113.493 111.683 114.036 111.401 114.628 111.202C115.22 111 115.842 110.899 116.496 110.899C117.152 110.899 117.776 111 118.368 111.202C118.959 111.401 119.501 111.683 119.994 112.046C120.489 112.406 120.917 112.834 121.277 113.329C121.64 113.821 121.921 114.363 122.121 114.955C122.323 115.547 122.424 116.171 122.424 116.827C122.424 117.48 122.323 118.103 122.121 118.695C121.921 119.287 121.64 119.829 121.277 120.321C120.917 120.816 120.489 121.245 119.994 121.608C119.501 121.972 118.959 122.253 118.368 122.452C117.776 122.651 117.152 122.751 116.496 122.751ZM116.496 121.714C117.038 121.714 117.552 121.63 118.038 121.463C118.527 121.299 118.976 121.068 119.383 120.769C119.79 120.47 120.143 120.117 120.442 119.71C120.744 119.303 120.977 118.854 121.141 118.365C121.305 117.876 121.387 117.363 121.387 116.827C121.387 116.285 121.305 115.771 121.141 115.285C120.977 114.795 120.744 114.347 120.442 113.94C120.143 113.533 119.79 113.18 119.383 112.881C118.976 112.579 118.527 112.346 118.038 112.182C117.552 112.018 117.038 111.936 116.496 111.936C115.957 111.936 115.442 112.018 114.953 112.182C114.467 112.346 114.02 112.579 113.613 112.881C113.206 113.18 112.851 113.533 112.549 113.94C112.25 114.347 112.019 114.795 111.855 115.285C111.691 115.771 111.609 116.285 111.609 116.827C111.609 117.363 111.691 117.876 111.855 118.365C112.019 118.854 112.25 119.303 112.549 119.71C112.851 120.117 113.206 120.47 113.613 120.769C114.02 121.068 114.467 121.299 114.953 121.463C115.442 121.63 115.957 121.714 116.496 121.714Z" fill="white"/>
<rect x="77" y="105.333" width="23" height="23" rx="11.5" fill="#111111" fill-opacity="0.6" style="mix-blend-mode:luminosity"/>
<rect x="77" y="105.333" width="23" height="23" rx="11.5" fill="#777777" style="mix-blend-mode:color-dodge"/>
<rect x="77" y="105.333" width="23" height="23" rx="11.5" fill="#222222" style="mix-blend-mode:plus-lighter"/>
<path d="M84.2344 118.359C83.625 118.359 83.0854 118.226 82.6157 117.959C82.146 117.693 81.7778 117.325 81.5112 116.855C81.2446 116.385 81.1113 115.844 81.1113 115.23C81.1113 114.621 81.2446 114.081 81.5112 113.611C81.7778 113.142 82.146 112.773 82.6157 112.507C83.0854 112.24 83.625 112.107 84.2344 112.107H88.7285C89.3379 112.107 89.8774 112.24 90.3472 112.507C90.8169 112.773 91.1851 113.142 91.4517 113.611C91.7183 114.081 91.8516 114.621 91.8516 115.23C91.8516 115.844 91.7183 116.385 91.4517 116.855C91.1851 117.325 90.8169 117.693 90.3472 117.959C89.8774 118.226 89.3379 118.359 88.7285 118.359H87.459C87.349 118.262 87.2728 118.131 87.2305 117.966C87.1924 117.801 87.186 117.638 87.2114 117.477C87.2368 117.316 87.2961 117.196 87.3892 117.115H88.6714C89.0396 117.115 89.3633 117.037 89.6426 116.88C89.9261 116.72 90.1462 116.497 90.3027 116.214C90.4635 115.93 90.5439 115.602 90.5439 115.23C90.5439 114.862 90.4635 114.536 90.3027 114.252C90.1462 113.969 89.9261 113.749 89.6426 113.592C89.3633 113.431 89.0396 113.351 88.6714 113.351H84.2915C83.9276 113.351 83.6038 113.431 83.3203 113.592C83.0368 113.749 82.8146 113.969 82.6538 114.252C82.4972 114.536 82.4189 114.862 82.4189 115.23C82.4189 115.602 82.4972 115.93 82.6538 116.214C82.8146 116.497 83.0347 116.72 83.314 116.88C83.5975 117.037 83.9233 117.115 84.2915 117.115H84.4692C84.4269 117.297 84.4079 117.496 84.4121 117.712C84.4206 117.928 84.4396 118.144 84.4692 118.359H84.2344ZM88.2651 120.778C87.66 120.778 87.1226 120.645 86.6528 120.378C86.1831 120.111 85.8149 119.743 85.5483 119.273C85.2817 118.799 85.1484 118.258 85.1484 117.648C85.1484 117.035 85.2817 116.493 85.5483 116.023C85.8149 115.554 86.1831 115.186 86.6528 114.919C87.1226 114.652 87.66 114.519 88.2651 114.519H89.541C89.6426 114.616 89.7103 114.748 89.7441 114.913C89.7822 115.073 89.7886 115.234 89.7632 115.395C89.742 115.552 89.6912 115.674 89.6108 115.763H88.3223C87.9583 115.763 87.6346 115.844 87.3511 116.004C87.0718 116.161 86.8517 116.381 86.6909 116.665C86.5301 116.948 86.4497 117.276 86.4497 117.648C86.4497 118.017 86.5301 118.342 86.6909 118.626C86.8517 118.91 87.0718 119.132 87.3511 119.292C87.6346 119.453 87.9583 119.534 88.3223 119.534H92.7085C93.0767 119.534 93.4004 119.453 93.6797 119.292C93.959 119.132 94.179 118.91 94.3398 118.626C94.5007 118.342 94.5811 118.017 94.5811 117.648C94.5811 117.276 94.5007 116.948 94.3398 116.665C94.179 116.381 93.959 116.161 93.6797 116.004C93.4004 115.844 93.0767 115.763 92.7085 115.763H92.5308C92.5688 115.581 92.5858 115.382 92.5815 115.167C92.5773 114.951 92.5583 114.735 92.5244 114.519H92.7656C93.375 114.519 93.9124 114.652 94.3779 114.919C94.8477 115.186 95.2158 115.554 95.4824 116.023C95.749 116.493 95.8823 117.035 95.8823 117.648C95.8823 118.258 95.749 118.799 95.4824 119.273C95.2158 119.743 94.8477 120.111 94.3779 120.378C93.9124 120.645 93.375 120.778 92.7656 120.778H88.2651Z" fill="white"/>
<rect x="105.333" y="77" width="23" height="23" rx="11.5" fill="#007AFF"/>
<path fill-rule="evenodd" clip-rule="evenodd" d="M116.97 87.198V84.7661L118.467 85.9925L116.97 87.198ZM116.97 92.2385V89.8066L118.467 91.0122L116.97 92.2385ZM115.713 93.2882C115.713 93.9741 116.575 94.2339 117.136 93.7558L119.61 91.6565C119.838 91.4694 119.942 91.22 119.942 90.9706C119.942 90.7212 119.828 90.4717 119.599 90.2951L117.365 88.4971L119.599 86.6992C119.828 86.5121 119.932 86.2627 119.942 86.0236C119.942 85.7846 119.838 85.5352 119.61 85.3377L117.136 83.2488C116.565 82.7603 115.713 83.0305 115.713 83.7164V87.2604L114.039 85.8781C113.915 85.7742 113.769 85.7222 113.613 85.7222C113.27 85.7222 113 85.9925 113 86.3354C113 86.5225 113.073 86.7096 113.249 86.8447L115.318 88.5075L113.249 90.1703C113.073 90.3054 113 90.4925 113 90.6796C113 91.0537 113.281 91.2928 113.613 91.2928C113.759 91.2928 113.915 91.2408 114.039 91.1369L115.713 89.7546V93.2882Z" fill="white"/>
<rect x="77" y="77" width="23" height="23" rx="11.5" fill="#34C759"/>
<path d="M82.915 92.5142C82.7145 92.5142 82.5527 92.4538 82.4297 92.333C82.3066 92.2145 82.2451 92.0584 82.2451 91.8647V90.0293C82.2451 89.8356 82.3066 89.6795 82.4297 89.561C82.5527 89.4425 82.7145 89.3833 82.915 89.3833H83.8242C84.0225 89.3833 84.1831 89.4425 84.3062 89.561C84.4292 89.6795 84.4907 89.8356 84.4907 90.0293V91.8647C84.4907 92.0584 84.4292 92.2145 84.3062 92.333C84.1831 92.4538 84.0225 92.5142 83.8242 92.5142H82.915ZM86.3364 92.5142C86.1359 92.5142 85.9741 92.4538 85.8511 92.333C85.728 92.2145 85.6665 92.0584 85.6665 91.8647V88.6621C85.6665 88.4684 85.728 88.3123 85.8511 88.1938C85.9741 88.0731 86.1359 88.0127 86.3364 88.0127H87.2456C87.4461 88.0127 87.6068 88.0731 87.7275 88.1938C87.8506 88.3123 87.9121 88.4684 87.9121 88.6621V91.8647C87.9121 92.0584 87.8506 92.2145 87.7275 92.333C87.6068 92.4538 87.4461 92.5142 87.2456 92.5142H86.3364ZM89.7544 92.5142C89.5562 92.5142 89.3955 92.4538 89.2725 92.333C89.1494 92.2145 89.0879 92.0584 89.0879 91.8647V87.0078C89.0879 86.8141 89.1494 86.658 89.2725 86.5396C89.3955 86.4188 89.5562 86.3584 89.7544 86.3584H90.667C90.8652 86.3584 91.0259 86.4188 91.1489 86.5396C91.272 86.658 91.3335 86.8141 91.3335 87.0078V91.8647C91.3335 92.0584 91.272 92.2145 91.1489 92.333C91.0259 92.4538 90.8652 92.5142 90.667 92.5142H89.7544ZM93.1792 92.5142C92.9787 92.5142 92.8169 92.4538 92.6938 92.333C92.5708 92.2145 92.5093 92.0584 92.5093 91.8647V85.1963C92.5093 85.0026 92.5708 84.8465 92.6938 84.728C92.8169 84.6073 92.9787 84.5469 93.1792 84.5469H94.0884C94.2889 84.5469 94.4495 84.6073 94.5703 84.728C94.6934 84.8465 94.7549 85.0026 94.7549 85.1963V91.8647C94.7549 92.0584 94.6934 92.2145 94.5703 92.333C94.4495 92.4538 94.2889 92.5142 94.0884 92.5142H93.1792Z" fill="white"/>
<rect x="13" y="77" width="51" height="51" rx="25.5" fill="#007AFF"/>
<path d="M38.5 111.984C38.3698 111.984 38.237 111.945 38.1016 111.867C37.9714 111.794 37.8021 111.659 37.5938 111.461L35.1094 109.07C35.0104 108.977 34.9479 108.872 34.9219 108.758C34.8958 108.638 34.9167 108.526 34.9844 108.422C35.2292 108.089 35.5339 107.792 35.8984 107.531C36.2682 107.271 36.6745 107.065 37.1172 106.914C37.5599 106.763 38.0208 106.688 38.5 106.688C38.9688 106.688 39.4193 106.76 39.8516 106.906C40.2891 107.047 40.6875 107.242 41.0469 107.492C41.4062 107.742 41.7083 108.021 41.9531 108.328C42.0469 108.448 42.0859 108.578 42.0703 108.719C42.0547 108.854 41.9974 108.971 41.8984 109.07L39.4062 111.461C39.2031 111.664 39.0339 111.802 38.8984 111.875C38.763 111.948 38.6302 111.984 38.5 111.984ZM32.4375 106.305L30.8438 104.758C30.7344 104.654 30.6745 104.539 30.6641 104.414C30.6589 104.284 30.7031 104.164 30.7969 104.055C31.3385 103.409 32.0078 102.841 32.8047 102.352C33.6068 101.857 34.4922 101.471 35.4609 101.195C36.4349 100.919 37.4479 100.781 38.5 100.781C39.5469 100.781 40.5547 100.919 41.5234 101.195C42.4974 101.471 43.3854 101.857 44.1875 102.352C44.9896 102.841 45.6589 103.409 46.1953 104.055C46.2891 104.164 46.3307 104.284 46.3203 104.414C46.3151 104.544 46.2578 104.659 46.1484 104.758L44.5547 106.297C44.4245 106.417 44.2839 106.479 44.1328 106.484C43.9818 106.484 43.849 106.422 43.7344 106.297C43.3073 105.844 42.8125 105.445 42.25 105.102C41.6875 104.758 41.0859 104.49 40.4453 104.297C39.8099 104.104 39.1615 104.008 38.5 104.008C37.8438 104.008 37.1979 104.102 36.5625 104.289C35.9271 104.477 35.3307 104.74 34.7734 105.078C34.2161 105.417 33.7292 105.81 33.3125 106.258C33.1823 106.393 33.0365 106.466 32.875 106.477C32.7135 106.487 32.5677 106.43 32.4375 106.305ZM28.1875 102.125L26.7656 100.68C26.6615 100.57 26.6042 100.448 26.5938 100.312C26.5885 100.172 26.6328 100.047 26.7266 99.9375C27.3464 99.1719 28.0859 98.4714 28.9453 97.8359C29.8047 97.2005 30.75 96.6536 31.7812 96.1953C32.8125 95.7318 33.8958 95.375 35.0312 95.125C36.1719 94.8698 37.3281 94.7422 38.5 94.7422C39.6719 94.7422 40.8255 94.8698 41.9609 95.125C43.0964 95.3802 44.1771 95.737 45.2031 96.1953C46.2344 96.6536 47.1797 97.2005 48.0391 97.8359C48.9036 98.4714 49.6458 99.1719 50.2656 99.9375C50.3594 100.047 50.4036 100.172 50.3984 100.312C50.3932 100.448 50.3359 100.57 50.2266 100.68L48.8047 102.102C48.6849 102.221 48.5443 102.284 48.3828 102.289C48.2266 102.289 48.0911 102.232 47.9766 102.117C46.7318 100.789 45.3021 99.7812 43.6875 99.0938C42.0781 98.4062 40.349 98.0625 38.5 98.0625C36.6562 98.0625 34.9297 98.4062 33.3203 99.0938C31.7161 99.7812 30.2891 100.784 29.0391 102.102C28.9193 102.232 28.776 102.299 28.6094 102.305C28.4479 102.305 28.3073 102.245 28.1875 102.125Z" fill="white"/>
<rect x="77" y="13" width="51" height="51" rx="25.5" fill="#111111" fill-opacity="0.6" style="mix-blend-mode:luminosity"/>
<rect x="77" y="13" width="51" height="51" rx="25.5" fill="#777777" style="mix-blend-mode:color-dodge"/>
<rect x="77" y="13" width="51" height="51" rx="25.5" fill="#222222" style="mix-blend-mode:plus-lighter"/>
<path fill-rule="evenodd" clip-rule="evenodd" d="M113 39C113 42.865 110.807 46.2178 107.598 47.8825L108.607 49.6122C112.409 47.599 115 43.602 115 39C115 32.3726 109.627 27 103 27C96.3726 27 91 32.3726 91 39C91 43.602 93.5905 47.599 97.3929 49.6122L98.4019 47.8825C95.1926 46.2178 93 42.865 93 39C93 33.4772 97.4772 29 103 29C108.523 29 113 33.4772 113 39ZM111.666 38.9998C111.666 42.3732 109.739 45.2965 106.925 46.7284L105.915 44.9967C108.136 43.9151 109.666 41.6362 109.666 38.9998C109.666 35.3179 106.681 32.3333 103 32.3333C99.3177 32.3333 96.333 35.3179 96.333 38.9998C96.333 41.6365 97.8637 43.9156 100.085 44.9971L99.0749 46.7288C96.2608 45.297 94.333 42.3735 94.333 38.9998C94.333 34.2134 98.2131 30.3333 103 30.3333C107.786 30.3333 111.666 34.2134 111.666 38.9998ZM106 39C106 40.2855 105.192 41.3821 104.055 41.8091L105.072 43.5519C106.799 42.7643 108 41.0224 108 39C108 36.2386 105.761 34 103 34C100.239 34 98 36.2386 98 39C98 41.0224 99.2007 42.7643 100.928 43.5519L101.945 41.8091C100.808 41.3821 100 40.2855 100 39C100 37.3431 101.343 36 103 36C104.657 36 106 37.3431 106 39ZM103 40.666C103.92 40.666 104.666 39.9199 104.666 38.9995C104.666 38.0791 103.92 37.333 103 37.333C102.079 37.333 101.333 38.0791 101.333 38.9995C101.333 39.9199 102.079 40.666 103 40.666Z" fill="white"/>
<rect x="13" y="13" width="51" height="51" rx="25.5" fill="#111111" fill-opacity="0.6" style="mix-blend-mode:luminosity"/>
<rect x="13" y="13" width="51" height="51" rx="25.5" fill="#777777" style="mix-blend-mode:color-dodge"/>
<rect x="13" y="13" width="51" height="51" rx="25.5" fill="#222222" style="mix-blend-mode:plus-lighter"/>
<path d="M51.6953 39.3594C51.6901 39.75 51.5234 40.1146 51.1953 40.4531C50.8724 40.7865 50.4323 41.0547 49.875 41.2578C49.3229 41.4609 48.7057 41.5625 48.0234 41.5625H43.8203C43.5339 41.5625 43.3203 41.5964 43.1797 41.6641C43.0391 41.7266 42.8802 41.849 42.7031 42.0312L35.8594 49.3516C35.6354 49.5911 35.3776 49.7109 35.0859 49.7109H33.6719C33.5365 49.7109 33.4375 49.6589 33.375 49.5547C33.3177 49.4557 33.3203 49.3385 33.3828 49.2031L36.9297 41.5781L31.7188 41.0078L29.875 44.2188C29.8021 44.3438 29.7109 44.4349 29.6016 44.4922C29.4922 44.5495 29.3568 44.5781 29.1953 44.5781H28.7266C28.5859 44.5781 28.4714 44.5365 28.3828 44.4531C28.2943 44.3646 28.25 44.25 28.25 44.1094V34.6016C28.25 34.4609 28.2943 34.349 28.3828 34.2656C28.4714 34.1771 28.5859 34.1328 28.7266 34.1328H29.1953C29.3568 34.1328 29.4922 34.1615 29.6016 34.2188C29.7109 34.276 29.8021 34.3672 29.875 34.4922L31.7188 37.7109L36.9297 37.1406L33.3828 29.5156C33.3203 29.375 33.3177 29.2552 33.375 29.1562C33.4375 29.0521 33.5365 29 33.6719 29H35.0859C35.3776 29 35.6354 29.1198 35.8594 29.3594L42.7031 36.6797C42.8802 36.862 43.0391 36.987 43.1797 37.0547C43.3203 37.1172 43.5339 37.1484 43.8203 37.1484H48.0234C48.7057 37.1484 49.3229 37.25 49.875 37.4531C50.4323 37.6562 50.8724 37.9245 51.1953 38.2578C51.5234 38.5911 51.6901 38.9583 51.6953 39.3594Z" fill="white"/>
</svg>
