<svg width="142" height="142" viewBox="0 0 142 142" fill="none" xmlns="http://www.w3.org/2000/svg">
<rect width="142" height="142" rx="30" fill="#333333" fill-opacity="0.35"/>
<rect width="142" height="142" rx="30" fill="black" fill-opacity="0.2" style="mix-blend-mode:plus-darker"/>
<path d="M97.7754 122.674V112.859C97.7754 112.426 97.8906 112.102 98.1211 111.887C98.3516 111.668 98.625 111.559 98.9414 111.559C99.2188 111.559 99.4902 111.637 99.7559 111.793L107.93 116.562C108.23 116.738 108.457 116.918 108.609 117.102C108.766 117.285 108.844 117.508 108.844 117.77C108.844 118.027 108.766 118.248 108.609 118.432C108.457 118.615 108.23 118.795 107.93 118.971L99.7559 123.74C99.4902 123.896 99.2188 123.975 98.9414 123.975C98.625 123.975 98.3516 123.865 98.1211 123.646C97.8906 123.432 97.7754 123.107 97.7754 122.674ZM108.791 122.674V112.859C108.791 112.426 108.906 112.102 109.137 111.887C109.367 111.668 109.639 111.559 109.951 111.559C110.229 111.559 110.502 111.637 110.771 111.793L118.945 116.562C119.242 116.738 119.469 116.918 119.625 117.102C119.781 117.285 119.859 117.508 119.859 117.77C119.859 118.027 119.781 118.248 119.625 118.432C119.469 118.615 119.242 118.795 118.945 118.971L110.771 123.74C110.502 123.896 110.229 123.975 109.951 123.975C109.639 123.975 109.367 123.865 109.137 123.646C108.906 123.432 108.791 123.107 108.791 122.674Z" fill="white"/>
<path d="M61.3208 126.061V108.3C61.3208 107.519 61.5283 106.933 61.9434 106.542C62.3584 106.151 62.8548 105.956 63.4326 105.956C63.9372 105.956 64.4336 106.094 64.9219 106.371L79.6924 114.989C80.2539 115.315 80.673 115.644 80.9497 115.978C81.2264 116.304 81.3647 116.706 81.3647 117.187C81.3647 117.65 81.2264 118.053 80.9497 118.395C80.673 118.729 80.2539 119.054 79.6924 119.372L64.9219 127.99C64.4336 128.275 63.9372 128.417 63.4326 128.417C62.8548 128.417 62.3584 128.218 61.9434 127.819C61.5283 127.428 61.3208 126.842 61.3208 126.061Z" fill="white"/>
<path d="M44.2188 122.674C44.2188 123.107 44.1035 123.432 43.873 123.646C43.6426 123.865 43.3711 123.975 43.0586 123.975C42.7773 123.975 42.5039 123.896 42.2383 123.74L34.0645 118.971C33.7637 118.795 33.5352 118.615 33.3789 118.432C33.2266 118.248 33.1504 118.027 33.1504 117.77C33.1504 117.508 33.2266 117.285 33.3789 117.102C33.5352 116.918 33.7637 116.738 34.0645 116.562L42.2383 111.793C42.5039 111.637 42.7773 111.559 43.0586 111.559C43.3711 111.559 43.6426 111.668 43.873 111.887C44.1035 112.102 44.2188 112.426 44.2188 112.859V122.674ZM33.2031 122.674C33.2031 123.107 33.0879 123.432 32.8574 123.646C32.627 123.865 32.3555 123.975 32.043 123.975C31.7656 123.975 31.4922 123.896 31.2227 123.74L23.0547 118.971C22.7539 118.795 22.5254 118.615 22.3691 118.432C22.2129 118.248 22.1348 118.027 22.1348 117.77C22.1348 117.508 22.2129 117.285 22.3691 117.102C22.5254 116.918 22.7539 116.738 23.0547 116.562L31.2227 111.793C31.4922 111.637 31.7656 111.559 32.043 111.559C32.3555 111.559 32.627 111.668 32.8574 111.887C33.0879 112.102 33.2031 112.426 33.2031 112.859V122.674Z" fill="white"/>
<path d="M14.5127 96L18.3286 85.4312H19.6543V87.2842H19.1562L16.2412 96H14.5127ZM16.3511 93.1436L16.8125 91.8252H21.6245L22.0859 93.1436H16.3511ZM22.1885 96L19.2808 87.2842V85.4312H20.1084L23.917 96H22.1885ZM25.4923 96V88.0459H27.0816V89.2471H27.2061C27.3477 88.8223 27.5968 88.4927 27.9532 88.2583C28.3145 88.0239 28.7589 87.9067 29.2862 87.9067C29.418 87.9067 29.5474 87.9141 29.6744 87.9287C29.8013 87.9434 29.9039 87.9604 29.982 87.98V89.4448C29.8404 89.4155 29.6988 89.3936 29.5572 89.3789C29.4205 89.3643 29.2764 89.3569 29.1251 89.3569C28.7198 89.3569 28.3634 89.4351 28.0557 89.5913C27.753 89.7476 27.5138 89.9673 27.338 90.2505C27.1671 90.5288 27.0816 90.8608 27.0816 91.2466V96H25.4923ZM34.5968 96.0513C33.7277 96.0513 33.0978 95.8853 32.7072 95.5532C32.3214 95.2163 32.1286 94.667 32.1286 93.9053V89.2983H30.8835V88.0459H32.1286V86.0391H33.7546V88.0459H35.4611V89.2983H33.7546V93.5171C33.7546 93.9468 33.84 94.2568 34.0109 94.4473C34.1818 94.6328 34.465 94.7256 34.8605 94.7256C34.9777 94.7256 35.0778 94.7231 35.1608 94.7183C35.2487 94.7134 35.3488 94.7061 35.4611 94.6963V95.9707C35.3341 95.9902 35.1974 96.0073 35.0509 96.022C34.9045 96.0415 34.7531 96.0513 34.5968 96.0513ZM37.2634 96V88.0459H38.8601V96H37.2634ZM38.0691 86.625C37.7956 86.625 37.5613 86.5273 37.366 86.332C37.1706 86.1367 37.073 85.9023 37.073 85.6289C37.073 85.3555 37.1706 85.1235 37.366 84.9331C37.5613 84.7378 37.7956 84.6401 38.0691 84.6401C38.3425 84.6401 38.5769 84.7378 38.7722 84.9331C38.9675 85.1235 39.0652 85.3555 39.0652 85.6289C39.0652 85.9023 38.9675 86.1367 38.7722 86.332C38.5769 86.5273 38.3425 86.625 38.0691 86.625ZM43.9803 96.1538C43.3406 96.1538 42.784 96.061 42.3104 95.8755C41.8367 95.6851 41.4608 95.4238 41.1824 95.0918C40.9041 94.7549 40.7405 94.3643 40.6917 93.9199V93.9053H42.2884V93.9199C42.3909 94.2178 42.5863 94.4595 42.8743 94.645C43.1624 94.8306 43.5433 94.9233 44.0169 94.9233C44.3441 94.9233 44.6297 94.877 44.8738 94.7842C45.1229 94.6914 45.3182 94.562 45.4598 94.396C45.6014 94.23 45.6722 94.0396 45.6722 93.8247V93.8101C45.6722 93.561 45.5721 93.3511 45.3719 93.1802C45.1717 93.0093 44.8421 92.8701 44.3831 92.7627L43.1087 92.4697C42.6107 92.3574 42.1981 92.2036 41.8709 92.0083C41.5438 91.813 41.3021 91.5737 41.1458 91.2905C40.9896 91.0024 40.9114 90.6655 40.9114 90.2798V90.2725C40.9114 89.8086 41.0433 89.3984 41.307 89.042C41.5706 88.6807 41.9344 88.3999 42.3983 88.1997C42.867 87.9946 43.4017 87.8921 44.0023 87.8921C44.6077 87.8921 45.1351 87.9873 45.5843 88.1777C46.0384 88.3633 46.3973 88.6221 46.661 88.9541C46.9246 89.2812 47.0809 89.6621 47.1297 90.0967V90.104H45.6063V90.0894C45.533 89.811 45.3572 89.5791 45.0789 89.3936C44.8055 89.208 44.4442 89.1152 43.9949 89.1152C43.7069 89.1152 43.4505 89.1616 43.2259 89.2544C43.0013 89.3423 42.8231 89.4668 42.6912 89.6279C42.5643 89.7842 42.5008 89.9697 42.5008 90.1846V90.1992C42.5008 90.3652 42.5423 90.5117 42.6253 90.6387C42.7132 90.7607 42.8499 90.8706 43.0355 90.9683C43.221 91.061 43.4603 91.144 43.7532 91.2173L45.0203 91.5029C45.7821 91.6836 46.3485 91.9448 46.7196 92.2866C47.0955 92.6284 47.2835 93.0874 47.2835 93.6636V93.6782C47.2835 94.1665 47.1395 94.5986 46.8514 94.9746C46.5633 95.3457 46.1702 95.6362 45.6722 95.8462C45.179 96.0513 44.6151 96.1538 43.9803 96.1538ZM52.0375 96.0513C51.1684 96.0513 50.5385 95.8853 50.1479 95.5532C49.7621 95.2163 49.5692 94.667 49.5692 93.9053V89.2983H48.3241V88.0459H49.5692V86.0391H51.1952V88.0459H52.9018V89.2983H51.1952V93.5171C51.1952 93.9468 51.2807 94.2568 51.4516 94.4473C51.6225 94.6328 51.9057 94.7256 52.3012 94.7256C52.4184 94.7256 52.5185 94.7231 52.6015 94.7183C52.6894 94.7134 52.7895 94.7061 52.9018 94.6963V95.9707C52.7748 95.9902 52.6381 96.0073 52.4916 96.022C52.3451 96.0415 52.1937 96.0513 52.0375 96.0513Z" fill="white" fill-opacity="0.33" style="mix-blend-mode:plus-lighter"/>
<path d="M18.0063 82V72.8521H14.6812V71.4312H22.9722V72.8521H19.647V82H18.0063ZM23.5852 82V74.0459H25.1745V75.2471H25.299C25.4406 74.8223 25.6896 74.4927 26.0461 74.2583C26.4074 74.0239 26.8518 73.9067 27.3791 73.9067C27.5109 73.9067 27.6403 73.9141 27.7673 73.9287C27.8942 73.9434 27.9968 73.9604 28.0749 73.98V75.4448C27.9333 75.4155 27.7917 75.3936 27.6501 75.3789C27.5134 75.3643 27.3693 75.3569 27.218 75.3569C26.8127 75.3569 26.4563 75.4351 26.1486 75.5913C25.8459 75.7476 25.6066 75.9673 25.4309 76.2505C25.26 76.5288 25.1745 76.8608 25.1745 77.2466V82H23.5852ZM31.5297 82.1318C31.0268 82.1318 30.5751 82.0366 30.1747 81.8462C29.7792 81.6509 29.4667 81.375 29.2372 81.0186C29.0077 80.6621 28.893 80.2446 28.893 79.7661V79.7515C28.893 79.2729 29.0077 78.8652 29.2372 78.5283C29.4716 78.1914 29.8085 77.9277 30.2479 77.7373C30.6923 77.542 31.2294 77.4248 31.8593 77.3857L34.7963 77.21V78.3306L32.079 78.5063C31.5321 78.5405 31.1293 78.6577 30.8705 78.8579C30.6117 79.0532 30.4823 79.3291 30.4823 79.6855V79.7002C30.4823 80.0615 30.6215 80.3472 30.8998 80.5571C31.1781 80.7622 31.5297 80.8647 31.9545 80.8647C32.35 80.8647 32.7016 80.7866 33.0092 80.6304C33.3217 80.4692 33.5658 80.2544 33.7416 79.9858C33.9174 79.7124 34.0053 79.4048 34.0053 79.063V76.5581C34.0053 76.1187 33.8686 75.7842 33.5951 75.5547C33.3266 75.3203 32.9262 75.2031 32.3939 75.2031C31.9496 75.2031 31.5858 75.2812 31.3026 75.4375C31.0243 75.5938 30.8388 75.8135 30.746 76.0967L30.7313 76.1187H29.2006L29.2079 76.0674C29.2714 75.6279 29.4447 75.2471 29.7279 74.9248C30.016 74.5977 30.392 74.3438 30.8559 74.1631C31.3246 73.9824 31.8593 73.8921 32.4599 73.8921C33.1288 73.8921 33.6952 73.9995 34.1591 74.2144C34.6278 74.4243 34.9818 74.7295 35.2211 75.1299C35.4652 75.5254 35.5873 76.0015 35.5873 76.5581V82H34.0053V80.8721H33.8881C33.7318 81.1406 33.5365 81.3701 33.3021 81.5605C33.0678 81.7461 32.8017 81.8877 32.5038 81.9854C32.206 82.083 31.8813 82.1318 31.5297 82.1318ZM40.9757 82.1538C40.2042 82.1538 39.5377 81.9878 38.9762 81.6558C38.4195 81.3188 37.9898 80.8403 37.6871 80.2202C37.3844 79.6001 37.233 78.8604 37.233 78.001V77.9863C37.233 77.1416 37.3819 76.4141 37.6798 75.8037C37.9825 75.1934 38.4122 74.7222 38.9688 74.3901C39.5304 74.0581 40.1969 73.8921 40.9684 73.8921C41.6373 73.8921 42.211 74.0093 42.6896 74.2437C43.1729 74.4731 43.5562 74.7905 43.8395 75.1958C44.1275 75.5962 44.3082 76.0527 44.3814 76.5654L44.3888 76.6021H42.858L42.8507 76.5874C42.7628 76.1968 42.5602 75.8721 42.2428 75.6133C41.9254 75.3496 41.503 75.2178 40.9757 75.2178C40.5362 75.2178 40.1578 75.3301 39.8404 75.5547C39.523 75.7744 39.2789 76.0918 39.108 76.5068C38.942 76.9219 38.859 77.415 38.859 77.9863V78.001C38.859 78.5869 38.9444 79.0898 39.1153 79.5098C39.2862 79.9297 39.5304 80.2544 39.8478 80.4839C40.1651 80.7085 40.5411 80.8208 40.9757 80.8208C41.4737 80.8208 41.8766 80.7109 42.1842 80.4912C42.4967 80.2715 42.7164 79.9468 42.8434 79.5171L42.858 79.4805L44.3814 79.4731L44.3668 79.5391C44.274 80.0566 44.086 80.5107 43.8028 80.9014C43.5196 81.292 43.1412 81.5996 42.6676 81.8242C42.1988 82.0439 41.6349 82.1538 40.9757 82.1538ZM46.0564 82V70.9258H47.6458V82H46.0564ZM51.0662 82L48.2098 78.272L49.389 77.2832L53.0071 82H51.0662ZM47.492 79.2681L47.4261 77.3931H47.7703L50.9197 74.0459H52.7874L49.1985 77.6787L48.5833 78.1841L47.492 79.2681Z" fill="white"/>
<rect x="89" y="13.5" width="39" height="39" rx="19.5" fill="#111111" fill-opacity="0.6" style="mix-blend-mode:luminosity"/>
<rect x="89" y="13.5" width="39" height="39" rx="19.5" fill="#777777" style="mix-blend-mode:color-dodge"/>
<rect x="89" y="13.5" width="39" height="39" rx="19.5" fill="#222222" style="mix-blend-mode:plus-lighter"/>
<path d="M98.8247 33.7119C98.8247 32.6523 98.9858 31.6416 99.3081 30.6797C99.6353 29.7129 100.094 28.8267 100.685 28.021C101.281 27.2104 101.981 26.5098 102.787 25.9189C103.593 25.3232 104.479 24.8618 105.446 24.5347C106.413 24.2026 107.431 24.0366 108.5 24.0366C109.564 24.0366 110.58 24.2026 111.547 24.5347C112.514 24.8618 113.4 25.3232 114.206 25.9189C115.011 26.5098 115.709 27.2104 116.3 28.021C116.896 28.8267 117.355 29.7129 117.677 30.6797C118.004 31.6416 118.168 32.6523 118.168 33.7119C118.168 34.625 118.046 35.5015 117.802 36.3413C117.558 37.1812 117.211 37.9673 116.762 38.6997C116.317 39.4321 115.785 40.0889 115.165 40.6699C115.106 40.7334 115.041 40.7627 114.967 40.7578C114.899 40.7578 114.835 40.7261 114.777 40.6626L114.374 40.2085C114.267 40.0767 114.271 39.9497 114.389 39.8276C114.926 39.3149 115.392 38.7363 115.788 38.0918C116.183 37.4473 116.488 36.7563 116.703 36.019C116.918 35.2769 117.025 34.5078 117.025 33.7119C117.025 32.7793 116.881 31.8882 116.593 31.0386C116.305 30.189 115.897 29.4102 115.37 28.7021C114.848 27.9893 114.23 27.3716 113.517 26.8491C112.804 26.3218 112.023 25.9141 111.173 25.626C110.324 25.3379 109.433 25.1938 108.5 25.1938C107.562 25.1938 106.669 25.3379 105.819 25.626C104.97 25.9141 104.188 26.3218 103.476 26.8491C102.763 27.3716 102.143 27.9893 101.615 28.7021C101.093 29.4102 100.688 30.189 100.399 31.0386C100.111 31.8882 99.9673 32.7793 99.9673 33.7119C99.9673 34.5078 100.075 35.2744 100.29 36.0117C100.504 36.749 100.807 37.4399 101.198 38.0845C101.593 38.729 102.057 39.3076 102.589 39.8203C102.707 39.9473 102.711 40.0742 102.604 40.2012L102.201 40.6479C102.147 40.7163 102.084 40.7505 102.011 40.7505C101.938 40.7554 101.869 40.7236 101.806 40.6553C101.195 40.0742 100.666 39.4199 100.216 38.6924C99.772 37.96 99.4277 37.1738 99.1836 36.334C98.9443 35.4941 98.8247 34.6201 98.8247 33.7119ZM101.579 33.7119C101.579 32.7598 101.757 31.8662 102.113 31.0312C102.47 30.1963 102.965 29.4614 103.6 28.8267C104.24 28.187 104.977 27.6865 105.812 27.3252C106.652 26.9639 107.548 26.7832 108.5 26.7832C109.452 26.7832 110.346 26.9639 111.181 27.3252C112.021 27.6865 112.755 28.187 113.385 28.8267C114.02 29.4614 114.518 30.1963 114.879 31.0312C115.241 31.8662 115.421 32.7598 115.421 33.7119C115.421 34.6689 115.236 35.5674 114.865 36.4072C114.494 37.2422 113.988 37.9722 113.349 38.5972C113.285 38.6655 113.217 38.6973 113.144 38.6924C113.07 38.6875 113.004 38.6533 112.946 38.5898L112.543 38.1431C112.431 38.021 112.433 37.8916 112.55 37.7549C113.078 37.2422 113.495 36.6392 113.803 35.9458C114.11 35.2476 114.264 34.5029 114.264 33.7119C114.264 32.9209 114.113 32.1787 113.81 31.4854C113.512 30.7871 113.097 30.1743 112.565 29.647C112.038 29.1147 111.425 28.6973 110.727 28.3945C110.033 28.0918 109.291 27.9404 108.5 27.9404C107.704 27.9404 106.957 28.0918 106.259 28.3945C105.565 28.6973 104.953 29.1147 104.42 29.647C103.893 30.1743 103.478 30.7871 103.175 31.4854C102.877 32.1787 102.729 32.9209 102.729 33.7119C102.729 34.498 102.88 35.2402 103.183 35.9385C103.49 36.6367 103.908 37.2397 104.435 37.7476C104.547 37.8892 104.547 38.0186 104.435 38.1357L104.04 38.5679C103.981 38.6362 103.913 38.6729 103.834 38.6777C103.761 38.6777 103.695 38.646 103.637 38.5825C102.997 37.9575 102.494 37.2275 102.128 36.3926C101.762 35.5576 101.579 34.6641 101.579 33.7119ZM104.325 33.7119C104.325 33.1406 104.433 32.6035 104.647 32.1006C104.862 31.5977 105.163 31.1533 105.548 30.7676C105.934 30.3818 106.378 30.0815 106.881 29.8667C107.389 29.647 107.929 29.5371 108.5 29.5371C109.071 29.5371 109.608 29.647 110.111 29.8667C110.619 30.0815 111.063 30.3818 111.444 30.7676C111.825 31.1533 112.123 31.5977 112.338 32.1006C112.558 32.6035 112.667 33.1406 112.667 33.7119C112.667 34.249 112.565 34.7568 112.36 35.2354C112.155 35.7139 111.874 36.1313 111.518 36.4878C111.459 36.5659 111.391 36.605 111.312 36.605C111.239 36.605 111.173 36.5684 111.115 36.4951L110.697 36.063C110.595 35.9507 110.59 35.8262 110.683 35.6895C110.941 35.4404 111.144 35.145 111.291 34.8032C111.442 34.4565 111.518 34.0928 111.518 33.7119C111.518 33.165 111.381 32.6621 111.107 32.2031C110.834 31.7441 110.468 31.3779 110.009 31.1045C109.55 30.8311 109.047 30.6943 108.5 30.6943C107.948 30.6943 107.443 30.8311 106.984 31.1045C106.53 31.3779 106.166 31.7441 105.893 32.2031C105.619 32.6621 105.482 33.165 105.482 33.7119C105.482 34.0928 105.553 34.4541 105.695 34.7959C105.841 35.1328 106.042 35.4258 106.295 35.6748C106.393 35.8115 106.388 35.936 106.281 36.0483L105.871 36.4805C105.807 36.5488 105.736 36.5854 105.658 36.5903C105.585 36.5903 105.519 36.5537 105.46 36.4805C105.114 36.124 104.838 35.709 104.633 35.2354C104.428 34.7568 104.325 34.249 104.325 33.7119ZM102.641 43.0796C102.436 43.0796 102.301 42.9941 102.238 42.8232C102.174 42.6523 102.206 42.4912 102.333 42.3398L108.097 35.814C108.205 35.7017 108.334 35.6455 108.485 35.6455C108.642 35.6455 108.771 35.7017 108.874 35.814L114.638 42.3398C114.765 42.4863 114.796 42.645 114.733 42.8159C114.669 42.9917 114.533 43.0796 114.323 43.0796H102.641Z" fill="white"/>
<rect x="13.5" y="13.5" width="51" height="51" rx="14" fill="#111111" fill-opacity="0.6" style="mix-blend-mode:luminosity"/>
<rect x="13.5" y="13.5" width="51" height="51" rx="14" fill="#777777" style="mix-blend-mode:color-dodge"/>
<rect x="13.5" y="13.5" width="51" height="51" rx="14" fill="#222222" style="mix-blend-mode:plus-lighter"/>
</svg>
