<svg width="162" height="72" viewBox="0 0 162 72" fill="none" xmlns="http://www.w3.org/2000/svg">
<mask id="mask0_1821_1616" style="mask-type:luminance" maskUnits="userSpaceOnUse" x="-35" y="40" width="165" height="22">
<path fill-rule="evenodd" clip-rule="evenodd" d="M130 62H-35L-35 55.1673C-32.0593 56.8513 -29.7055 59.0163 -25.0003 58.0543C-20.294 57.0923 -22.6465 56.3703 -18.5295 56.3703C-14.4113 56.3703 -13.235 53.7233 -7.94171 53.4833C-2.6472 53.2423 -0.882767 44.3413 2.64731 44.3413C6.17618 44.3413 5.88211 40.0103 14.9996 43.1383C24.1182 46.2653 28.8234 52.5213 32.6475 52.5213C36.4705 52.5213 39.046 47.2163 44.0103 47.6223C48.9734 48.0283 45.5879 57.0923 50.0002 57.0923C54.4113 57.0923 58.8236 51.7993 60.8821 51.7993C62.9406 51.7993 65.5885 57.3323 69.4114 56.6113C73.2356 55.8893 73.8237 51.7993 76.4704 51.7993C79.1182 51.7993 79.4123 59.9793 84.1175 59.9793C88.8238 59.9793 92.6468 54.4453 94.1171 54.4453C95.5887 54.4453 98.2353 61.6633 102.352 61.4223C106.471 61.1823 106.421 48.4543 109.957 47.8963C117.302 46.7373 115.294 40.4913 119.412 40.0103C123.529 39.5293 128.409 56.3703 128.409 56.3703L130 62Z" fill="white"/>
</mask>
<g mask="url(#mask0_1821_1616)">
<rect opacity="0.35" x="7" y="39" width="112" height="25" fill="url(#paint0_linear_1821_1616)"/>
</g>
<mask id="mask1_1821_1616" style="mask-type:luminance" maskUnits="userSpaceOnUse" x="7" y="39" width="112" height="25">
<rect x="7" y="39" width="112" height="25" fill="white"/>
</mask>
<g mask="url(#mask1_1821_1616)">
<g filter="url(#filter0_b_1821_1616)">
<path fill-rule="evenodd" clip-rule="evenodd" d="M-35.1331 66.0415V55.7545C-35.1331 55.4325 -34.9621 55.1375 -34.6851 54.9755C-34.4061 54.8145 -34.0641 54.8135 -33.7861 54.9735C-33.3201 55.2405 -32.8681 55.5185 -32.4191 55.7965C-30.0681 57.2465 -28.0361 58.4995 -24.4141 57.7595C-22.3781 57.3435 -21.7841 56.9895 -21.3491 56.7315C-20.6051 56.2885 -20.1071 56.0565 -17.7631 56.0565C-15.9821 56.0565 -14.8121 55.5065 -13.4581 54.8675C-11.9041 54.1345 -10.1411 53.3045 -7.21506 53.1715C-4.77306 53.0595 -3.12806 50.6285 -1.53706 48.2765C-0.0600548 46.0925 1.33595 44.0275 3.41394 44.0275C4.32994 44.0275 4.89594 43.6635 5.67994 43.1595C7.41594 42.0415 9.57695 40.6505 16.0579 42.8735C20.9629 44.5555 24.5879 47.0965 27.4999 49.1385C29.9469 50.8525 31.8799 52.2075 33.4139 52.2075C34.8549 52.2075 36.1539 51.2455 37.6579 50.1325C39.6019 48.6935 41.8009 47.0705 44.8499 47.3115C48.1159 47.5795 48.5669 50.8035 48.8959 53.1555C49.2759 55.8745 49.5999 56.7785 50.7669 56.7785C53.0999 56.7785 55.6029 54.9945 57.6139 53.5605C59.2409 52.4015 60.5259 51.4855 61.6489 51.4855C62.8399 51.4855 63.8779 52.4905 65.0789 53.6535C66.5329 55.0625 68.1759 56.6555 70.0119 56.3135C71.7039 55.9945 72.6689 54.8675 73.6019 53.7765C74.5659 52.6505 75.5629 51.4855 77.2369 51.4855C78.9449 51.4855 79.7939 53.3025 80.6929 55.2245C81.9079 57.8255 82.9209 59.6655 84.8839 59.6655C87.5699 59.6655 90.0599 57.5315 91.8769 55.9725C93.17 54.8645 94.0239 54.1325 94.8839 54.1325C95.8899 54.1325 96.6279 55.1635 97.743 56.7235C99.103 58.6265 100.971 61.2195 103.067 61.1105C104.583 61.0215 105.592 57.5005 106.403 54.6705C107.394 51.2145 108.329 47.9495 110.584 47.5945C114.306 47.0075 115.281 45.0515 116.224 43.1605C117.007 41.5905 117.817 39.9675 120.074 39.7035C120.161 39.6925 120.248 39.6875 120.335 39.6875C124.759 39.6875 128.869 52.6635 130.041 56.7065C130.057 56.7615 130.067 56.8175 130.072 56.8735L130.889 65.6275L129.083 65.6445L128.288 57.1265C125.715 48.2835 122.148 41.3185 120.283 41.4905C119.05 41.6355 118.596 42.4375 117.835 43.9635C116.851 45.9365 115.503 48.6395 110.864 49.3715C109.744 49.5495 108.851 52.6635 108.133 55.1665C107.066 58.8915 105.961 62.7445 103.172 62.9075C100.072 63.0935 97.8819 60.0145 96.2779 57.7705C95.7969 57.0965 95.1489 56.1905 94.8249 55.9535C94.5019 56.0945 93.6679 56.8085 93.0479 57.3395C91.0179 59.0815 88.2359 61.4665 84.8839 61.4665C81.6229 61.4665 80.2029 58.4285 79.0619 55.9865C78.4999 54.7835 77.7989 53.2865 77.2369 53.2865C76.4309 53.2865 75.8779 53.8865 74.9689 54.9475C73.9409 56.1495 72.6599 57.6455 70.3449 58.0835C67.6029 58.5985 65.5079 56.5745 63.8269 54.9465C63.0629 54.2075 62.1109 53.2865 61.6489 53.2865C61.1009 53.2865 59.8039 54.2115 58.6589 55.0265C56.4389 56.6095 53.6749 58.5795 50.7669 58.5795C47.8369 58.5795 47.4349 55.7105 47.1129 53.4055C46.7189 50.5855 46.3529 49.2415 44.7039 49.1065C42.3279 48.9065 40.5819 50.2085 38.7299 51.5785C37.1159 52.7725 35.4479 54.0085 33.4139 54.0085C31.3119 54.0085 29.1739 52.5095 26.4669 50.6115C23.6469 48.6355 20.1379 46.1755 15.4739 44.5765C9.81894 42.6355 8.13694 43.7185 6.65394 44.6725C5.77194 45.2405 4.85894 45.8285 3.41394 45.8285C2.29194 45.8285 1.15594 47.5075 -0.0470581 49.2845C-1.80106 51.8785 -3.78806 54.8175 -7.13406 54.9705C-9.70006 55.0855 -11.2211 55.8025 -12.6911 56.4955C-14.1111 57.1655 -15.5791 57.8575 -17.7631 57.8575C-19.7221 57.8575 -19.9731 58.0075 -20.4301 58.2785C-20.9741 58.6015 -21.7201 59.0465 -24.0541 59.5225C-28.3611 60.4015 -30.8911 58.8535 -33.3331 57.3475V66.0415H-35.1331Z" fill="white" fill-opacity="0.34" style="mix-blend-mode:plus-lighter"/>
<path fill-rule="evenodd" clip-rule="evenodd" d="M-35.1331 66.0415V55.7545C-35.1331 55.4325 -34.9621 55.1375 -34.6851 54.9755C-34.4061 54.8145 -34.0641 54.8135 -33.7861 54.9735C-33.3201 55.2405 -32.8681 55.5185 -32.4191 55.7965C-30.0681 57.2465 -28.0361 58.4995 -24.4141 57.7595C-22.3781 57.3435 -21.7841 56.9895 -21.3491 56.7315C-20.6051 56.2885 -20.1071 56.0565 -17.7631 56.0565C-15.9821 56.0565 -14.8121 55.5065 -13.4581 54.8675C-11.9041 54.1345 -10.1411 53.3045 -7.21506 53.1715C-4.77306 53.0595 -3.12806 50.6285 -1.53706 48.2765C-0.0600548 46.0925 1.33595 44.0275 3.41394 44.0275C4.32994 44.0275 4.89594 43.6635 5.67994 43.1595C7.41594 42.0415 9.57695 40.6505 16.0579 42.8735C20.9629 44.5555 24.5879 47.0965 27.4999 49.1385C29.9469 50.8525 31.8799 52.2075 33.4139 52.2075C34.8549 52.2075 36.1539 51.2455 37.6579 50.1325C39.6019 48.6935 41.8009 47.0705 44.8499 47.3115C48.1159 47.5795 48.5669 50.8035 48.8959 53.1555C49.2759 55.8745 49.5999 56.7785 50.7669 56.7785C53.0999 56.7785 55.6029 54.9945 57.6139 53.5605C59.2409 52.4015 60.5259 51.4855 61.6489 51.4855C62.8399 51.4855 63.8779 52.4905 65.0789 53.6535C66.5329 55.0625 68.1759 56.6555 70.0119 56.3135C71.7039 55.9945 72.6689 54.8675 73.6019 53.7765C74.5659 52.6505 75.5629 51.4855 77.2369 51.4855C78.9449 51.4855 79.7939 53.3025 80.6929 55.2245C81.9079 57.8255 82.9209 59.6655 84.8839 59.6655C87.5699 59.6655 90.0599 57.5315 91.8769 55.9725C93.17 54.8645 94.0239 54.1325 94.8839 54.1325C95.8899 54.1325 96.6279 55.1635 97.743 56.7235C99.103 58.6265 100.971 61.2195 103.067 61.1105C104.583 61.0215 105.592 57.5005 106.403 54.6705C107.394 51.2145 108.329 47.9495 110.584 47.5945C114.306 47.0075 115.281 45.0515 116.224 43.1605C117.007 41.5905 117.817 39.9675 120.074 39.7035C120.161 39.6925 120.248 39.6875 120.335 39.6875C124.759 39.6875 128.869 52.6635 130.041 56.7065C130.057 56.7615 130.067 56.8175 130.072 56.8735L130.889 65.6275L129.083 65.6445L128.288 57.1265C125.715 48.2835 122.148 41.3185 120.283 41.4905C119.05 41.6355 118.596 42.4375 117.835 43.9635C116.851 45.9365 115.503 48.6395 110.864 49.3715C109.744 49.5495 108.851 52.6635 108.133 55.1665C107.066 58.8915 105.961 62.7445 103.172 62.9075C100.072 63.0935 97.8819 60.0145 96.2779 57.7705C95.7969 57.0965 95.1489 56.1905 94.8249 55.9535C94.5019 56.0945 93.6679 56.8085 93.0479 57.3395C91.0179 59.0815 88.2359 61.4665 84.8839 61.4665C81.6229 61.4665 80.2029 58.4285 79.0619 55.9865C78.4999 54.7835 77.7989 53.2865 77.2369 53.2865C76.4309 53.2865 75.8779 53.8865 74.9689 54.9475C73.9409 56.1495 72.6599 57.6455 70.3449 58.0835C67.6029 58.5985 65.5079 56.5745 63.8269 54.9465C63.0629 54.2075 62.1109 53.2865 61.6489 53.2865C61.1009 53.2865 59.8039 54.2115 58.6589 55.0265C56.4389 56.6095 53.6749 58.5795 50.7669 58.5795C47.8369 58.5795 47.4349 55.7105 47.1129 53.4055C46.7189 50.5855 46.3529 49.2415 44.7039 49.1065C42.3279 48.9065 40.5819 50.2085 38.7299 51.5785C37.1159 52.7725 35.4479 54.0085 33.4139 54.0085C31.3119 54.0085 29.1739 52.5095 26.4669 50.6115C23.6469 48.6355 20.1379 46.1755 15.4739 44.5765C9.81894 42.6355 8.13694 43.7185 6.65394 44.6725C5.77194 45.2405 4.85894 45.8285 3.41394 45.8285C2.29194 45.8285 1.15594 47.5075 -0.0470581 49.2845C-1.80106 51.8785 -3.78806 54.8175 -7.13406 54.9705C-9.70006 55.0855 -11.2211 55.8025 -12.6911 56.4955C-14.1111 57.1655 -15.5791 57.8575 -17.7631 57.8575C-19.7221 57.8575 -19.9731 58.0075 -20.4301 58.2785C-20.9741 58.6015 -21.7201 59.0465 -24.0541 59.5225C-28.3611 60.4015 -30.8911 58.8535 -33.3331 57.3475V66.0415H-35.1331Z" fill="white" fill-opacity="0.84"/>
</g>
</g>
<path opacity="0.3" d="M8 63.6872L153.999 64.1663" stroke="white" stroke-width="2" stroke-linecap="round" stroke-linejoin="round" stroke-dasharray="3.5 5.5"/>
<g clip-path="url(#clip0_1821_1616)">
<g filter="url(#filter1_b_1821_1616)">
<path d="M113.872 17.4697V16.0122H121.804V17.4697H113.872ZM117.109 20.7217V12.7603H118.566V20.7217H117.109ZM126.403 21V12.123H126.286L123.627 14.02V12.4087L126.411 10.4312H128.051V21H126.403ZM131.889 21.1172C131.586 21.1172 131.33 21.0122 131.12 20.8022C130.915 20.5923 130.812 20.3408 130.812 20.0479C130.812 19.7451 130.915 19.4912 131.12 19.2861C131.33 19.0811 131.586 18.9785 131.889 18.9785C132.197 18.9785 132.453 19.0811 132.658 19.2861C132.863 19.4912 132.966 19.7451 132.966 20.0479C132.966 20.3408 132.863 20.5923 132.658 20.8022C132.453 21.0122 132.197 21.1172 131.889 21.1172ZM135.332 21L139.99 11.9326V11.8228H134.453V10.4312H141.652V11.8594L137.06 21H135.332ZM147.211 21.1978C146.425 21.1978 145.732 21.0684 145.131 20.8096C144.531 20.5508 144.06 20.1919 143.718 19.7329C143.376 19.269 143.205 18.7393 143.205 18.1436V18.1289C143.205 17.6846 143.303 17.2769 143.498 16.9058C143.698 16.5347 143.974 16.2222 144.326 15.9683C144.682 15.7095 145.09 15.5312 145.549 15.4336V15.397C144.958 15.2261 144.482 14.9331 144.121 14.5181C143.764 14.103 143.586 13.6147 143.586 13.0532V13.0386C143.586 12.4966 143.74 12.0156 144.047 11.5957C144.36 11.1758 144.79 10.8438 145.336 10.5996C145.883 10.3555 146.508 10.2334 147.211 10.2334C147.915 10.2334 148.537 10.3555 149.079 10.5996C149.626 10.8438 150.053 11.1758 150.361 11.5957C150.673 12.0156 150.83 12.4966 150.83 13.0386V13.0532C150.83 13.6147 150.651 14.103 150.295 14.5181C149.938 14.9331 149.465 15.2261 148.874 15.397V15.4336C149.338 15.5312 149.743 15.7095 150.09 15.9683C150.441 16.2222 150.715 16.5347 150.91 16.9058C151.11 17.2769 151.21 17.6846 151.21 18.1289V18.1436C151.21 18.7393 151.04 19.269 150.698 19.7329C150.361 20.1919 149.89 20.5508 149.284 20.8096C148.684 21.0684 147.993 21.1978 147.211 21.1978ZM147.211 19.8794C147.661 19.8794 148.059 19.8013 148.405 19.645C148.752 19.4839 149.023 19.2666 149.218 18.9932C149.418 18.7148 149.519 18.3975 149.519 18.041V18.0264C149.519 17.665 149.421 17.3452 149.226 17.0669C149.03 16.7837 148.757 16.564 148.405 16.4077C148.059 16.2466 147.661 16.166 147.211 16.166C146.757 16.166 146.357 16.2466 146.01 16.4077C145.664 16.564 145.393 16.7837 145.197 17.0669C145.002 17.3452 144.904 17.665 144.904 18.0264V18.041C144.904 18.3975 145.002 18.7148 145.197 18.9932C145.397 19.2666 145.671 19.4839 146.018 19.645C146.364 19.8013 146.762 19.8794 147.211 19.8794ZM147.211 14.8403C147.602 14.8403 147.946 14.772 148.244 14.6353C148.547 14.4937 148.781 14.2983 148.947 14.0493C149.113 13.8003 149.196 13.5171 149.196 13.1997V13.1851C149.196 12.8628 149.111 12.5771 148.94 12.3281C148.774 12.0791 148.542 11.8862 148.244 11.7495C147.946 11.6079 147.602 11.5371 147.211 11.5371C146.821 11.5371 146.474 11.6079 146.171 11.7495C145.874 11.8862 145.639 12.0791 145.468 12.3281C145.302 12.5771 145.219 12.8628 145.219 13.1851V13.1997C145.219 13.5171 145.302 13.8003 145.468 14.0493C145.639 14.2983 145.874 14.4937 146.171 14.6353C146.469 14.772 146.816 14.8403 147.211 14.8403Z" fill="white"/>
</g>
<g filter="url(#filter2_b_1821_1616)">
<path d="M22.5273 21L26.1968 10.4312H28.0791V12.5405H27.4346L24.8491 21H22.5273ZM24.4902 18.4365L25.0322 16.7812H29.9175L30.4595 18.4365H24.4902ZM30.1445 21L27.5664 12.5405V10.4312H28.7969L32.4736 21H30.1445ZM33.5137 21L37.1831 10.4312H39.0654V12.5405H38.4209L35.8354 21H33.5137ZM35.4766 18.4365L36.0186 16.7812H40.9038L41.4458 18.4365H35.4766ZM41.1309 21L38.5527 12.5405V10.4312H39.7832L43.46 21H41.1309ZM46.3604 17.6675V15.939H49.0703C49.7051 15.939 50.1982 15.7778 50.5498 15.4556C50.9062 15.1284 51.0845 14.6646 51.0845 14.064V14.0493C51.0845 13.4487 50.9062 12.9873 50.5498 12.665C50.1982 12.3428 49.7051 12.1816 49.0703 12.1816H46.3604V10.4312H49.6123C50.3545 10.4312 51.0039 10.5825 51.5605 10.8853C52.1172 11.1831 52.5493 11.603 52.8569 12.145C53.1694 12.687 53.3257 13.3193 53.3257 14.042V14.0566C53.3257 14.7842 53.1694 15.4189 52.8569 15.9609C52.5493 16.5029 52.1172 16.9229 51.5605 17.2207C51.0039 17.5186 50.3545 17.6675 49.6123 17.6675H46.3604ZM45.2544 21V10.4312H47.4663V21H45.2544ZM55.3618 21V10.4312H57.5737V19.1763H62.2759V21H55.3618Z" fill="white"/>
</g>
<g filter="url(#filter3_b_1821_1616)">
<path d="M10.25 20.1348C9.97656 20.1348 9.74219 20.0781 9.54688 19.9648C9.35156 19.8477 9.20117 19.6914 9.0957 19.4961C8.99023 19.2969 8.9375 19.0723 8.9375 18.8223C8.9375 18.5957 8.99805 18.3789 9.11914 18.1719L12.6465 12.0488C12.7715 11.834 12.9336 11.6699 13.1328 11.5566C13.3359 11.4434 13.5488 11.3867 13.7715 11.3867C13.9941 11.3867 14.2051 11.4434 14.4043 11.5566C14.6074 11.6699 14.7715 11.834 14.8965 12.0488L18.4238 18.1719C18.4824 18.2773 18.5273 18.3867 18.5586 18.5C18.5898 18.6094 18.6055 18.7168 18.6055 18.8223C18.6055 19.0723 18.5527 19.2969 18.4473 19.4961C18.3418 19.6914 18.1895 19.8477 17.9902 19.9648C17.7949 20.0781 17.5625 20.1348 17.293 20.1348H10.25Z" fill="white"/>
</g>
</g>
<defs>
<filter id="filter0_b_1821_1616" x="-171.047" y="-96.2266" width="437.85" height="298.182" filterUnits="userSpaceOnUse" color-interpolation-filters="sRGB">
<feFlood flood-opacity="0" result="BackgroundImageFix"/>
<feGaussianBlur in="BackgroundImageFix" stdDeviation="67.957"/>
<feComposite in2="SourceAlpha" operator="in" result="effect1_backgroundBlur_1821_1616"/>
<feBlend mode="normal" in="SourceGraphic" in2="effect1_backgroundBlur_1821_1616" result="shape"/>
</filter>
<filter id="filter1_b_1821_1616" x="-22.0425" y="-125.681" width="309.167" height="282.793" filterUnits="userSpaceOnUse" color-interpolation-filters="sRGB">
<feFlood flood-opacity="0" result="BackgroundImageFix"/>
<feGaussianBlur in="BackgroundImageFix" stdDeviation="67.957"/>
<feComposite in2="SourceAlpha" operator="in" result="effect1_backgroundBlur_1821_1616"/>
<feBlend mode="normal" in="SourceGraphic" in2="effect1_backgroundBlur_1821_1616" result="shape"/>
</filter>
<filter id="filter2_b_1821_1616" x="-113.387" y="-125.483" width="311.577" height="282.397" filterUnits="userSpaceOnUse" color-interpolation-filters="sRGB">
<feFlood flood-opacity="0" result="BackgroundImageFix"/>
<feGaussianBlur in="BackgroundImageFix" stdDeviation="67.957"/>
<feComposite in2="SourceAlpha" operator="in" result="effect1_backgroundBlur_1821_1616"/>
<feBlend mode="normal" in="SourceGraphic" in2="effect1_backgroundBlur_1821_1616" result="shape"/>
</filter>
<filter id="filter3_b_1821_1616" x="-126.977" y="-124.527" width="281.496" height="280.576" filterUnits="userSpaceOnUse" color-interpolation-filters="sRGB">
<feFlood flood-opacity="0" result="BackgroundImageFix"/>
<feGaussianBlur in="BackgroundImageFix" stdDeviation="67.957"/>
<feComposite in2="SourceAlpha" operator="in" result="effect1_backgroundBlur_1821_1616"/>
<feBlend mode="normal" in="SourceGraphic" in2="effect1_backgroundBlur_1821_1616" result="shape"/>
</filter>
<linearGradient id="paint0_linear_1821_1616" x1="7" y1="39" x2="7" y2="64" gradientUnits="userSpaceOnUse">
<stop stop-color="white"/>
<stop offset="1" stop-color="white" stop-opacity="0.01"/>
</linearGradient>
<clipPath id="clip0_1821_1616">
<rect width="146" height="20" fill="white" transform="translate(7 6)"/>
</clipPath>
</defs>
</svg>
